<?xml version="1.0" ?><svg height="200" id="svg2" version="1.1" width="200" xmlns="http://www.w3.org/2000/svg" xmlns:cc="http://creativecommons.org/ns#" xmlns:dc="http://purl.org/dc/elements/1.1/" xmlns:inkscape="http://www.inkscape.org/namespaces/inkscape" xmlns:rdf="http://www.w3.org/1999/02/22-rdf-syntax-ns#" xmlns:sodipodi="http://sodipodi.sourceforge.net/DTD/sodipodi-0.dtd" xmlns:svg="http://www.w3.org/2000/svg"><defs id="defs4"><clipPath clipPathUnits="userSpaceOnUse" id="clipPath18"><path d="m 0,551.986 530.973,0 L 530.973,0 0,0 0,551.986 z" id="path20"/></clipPath><clipPath clipPathUnits="userSpaceOnUse" id="clipPath18-7"><path d="m 0,551.986 530.973,0 L 530.973,0 0,0 0,551.986 z" id="path20-4"/></clipPath></defs><g id="layer1" style="display:inline" transform="translate(0,-852.36218)"><path d="m 100,862.36223 c -49.70563,0 -90,40.29437 -90,90 0,49.70567 40.29437,89.99997 90,89.99997 0.75044,0 1.47964,-0.084 2.21875,-0.125 0.26003,-0.014 0.52093,-0.018 0.78125,-0.031 0.93792,-0.046 1.87645,-0.096 2.8125,-0.1562 3.05043,-0.1958 6.04361,-0.5864 9,-1.0938 3.40887,-0.585 6.76448,-1.335 10.03125,-2.2812 5.67307,-1.6433 11.11833,-3.782 16.28125,-6.4375 18.08925,-9.3041 32.44221,-24.6105 40.78125,-43.21877 0.0631,-0.14086 0.15632,-0.26501 0.21875,-0.40625 1.70139,-3.84911 3.2178,-7.79522 4.375,-11.90625 0.67583,-2.40093 1.16632,-4.87165 1.65625,-7.34375 0.1628,-0.82145 0.4264,-1.606 0.5625,-2.4375 0.59899,-3.6596 0.95632,-7.39741 1.125,-11.1875 0.05,-1.12451 0.15625,-2.23807 0.15625,-3.375 0,-3.65022 -0.29637,-7.21352 -0.71875,-10.75 -0.0857,-0.71775 -0.24127,-1.41252 -0.34375,-2.125 C 182.66932,895.90736 145.31458,862.36243 100,862.36243 z" id="path6770" style="fill:#424242;fill-opacity:1;stroke:none"/><path d="" id="path6013" style="fill:#000000"/><path d="" id="path6011" style="fill:#000000"/><path d="" id="path6009" style="fill:#000000"/></g><g id="layer12"/><g id="layer11"><path d="m 100.00001,49.999997 c -28.309715,0 -51.265995,22.951183 -51.265995,51.265993 0,22.6498 14.68927,41.86648 35.05881,48.6453 2.56211,0.47456 3.50274,-1.11212 3.50274,-2.46618 0,-1.22163 -0.0475,-5.26091 -0.0696,-9.54467 -14.26225,3.10119 -17.27175,-6.04872 -17.27175,-6.04872 -2.33205,-5.92478 -5.69217,-7.50127 -5.69217,-7.50127 -4.65136,-3.18184 0.35062,-3.11647 0.35062,-3.11647 5.14799,0.36165 7.85867,5.28382 7.85867,5.28382 4.57241,7.8366 11.99302,5.57077 14.91848,4.26085 0.46097,-3.31258 1.78872,-5.57501 3.25485,-6.85522 -11.38688,-1.29548 -23.35698,-5.69216 -23.35698,-25.33586 0,-5.596234 2.00265,-10.170341 5.28212,-13.760522 -0.53229,-1.291243 -2.28705,-6.505453 0.49748,-13.566963 0,0 4.30499,-1.376987 14.10095,5.255808 4.08936,-1.135887 8.475,-1.705527 12.831785,-1.725902 4.35678,0.02038 8.74581,0.590015 12.84281,1.725902 9.78492,-6.632795 14.08397,-5.255808 14.08397,-5.255808 2.79047,7.06151 1.0357,12.27572 0.50343,13.566963 3.2871,3.590181 5.27532,8.164288 5.27532,13.760522 0,19.69124 -11.99301,24.02594 -23.40875,25.29511 1.8388,1.59092 3.47727,4.71079 3.47727,9.49374 0,6.85946 -0.0586,12.38014 -0.0586,14.06869 0,1.3651 0.92195,2.96281 3.52057,2.46024 20.35936,-6.78646 35.02994,-25.99635 35.02994,-48.63936 0,-28.31481 -22.95288,-51.265993 -51.265985,-51.265993" id="path28-2" style="fill:#ececec;fill-opacity:1;fill-rule:evenodd;stroke:none;display:inline"/><path d="M 100 10 C 50.29437 10 10 50.29437 10 100 C 10 149.70566 50.29437 190 100 190 L 100 10 z " id="rect2995" style="opacity:0.15;fill:#ffffff;fill-opacity:1;fill-rule:nonzero;stroke:none"/></g></svg>